<svg width="143" height="19" viewBox="0 0 143 19" fill="none" xmlns="http://www.w3.org/2000/svg">
<path d="M4.88 4.82V9.26H12.656V12.38H4.88V18.5H0.992V1.7H13.688V4.82H4.88ZM22.2849 5.444L24.9009 6.86L23.7249 8.828L21.0849 7.268L21.1329 10.172H18.8769L18.9009 7.244L16.2609 8.828L15.1089 6.86L17.7249 5.444L15.1089 4.004L16.2609 2.036L18.9009 3.62L18.8769 0.691999H21.1329L21.0849 3.62L23.7249 2.036L24.9009 4.004L22.2849 5.444ZM35.2351 18.788C33.5231 18.788 31.9711 18.42 30.5791 17.684C29.2031 16.932 28.1151 15.9 27.3151 14.588C26.5311 13.26 26.1391 11.764 26.1391 10.1C26.1391 8.436 26.5311 6.948 27.3151 5.636C28.1151 4.308 29.2031 3.276 30.5791 2.54C31.9711 1.788 33.5311 1.412 35.2591 1.412C36.7151 1.412 38.0271 1.668 39.1951 2.18C40.3791 2.692 41.3711 3.428 42.1711 4.388L39.6751 6.692C38.5391 5.38 37.1311 4.724 35.4511 4.724C34.4111 4.724 33.4831 4.956 32.6671 5.42C31.8511 5.868 31.2111 6.5 30.7471 7.316C30.2991 8.132 30.0751 9.06 30.0751 10.1C30.0751 11.14 30.2991 12.068 30.7471 12.884C31.2111 13.7 31.8511 14.34 32.6671 14.804C33.4831 15.252 34.4111 15.476 35.4511 15.476C37.1311 15.476 38.5391 14.812 39.6751 13.484L42.1711 15.788C41.3711 16.764 40.3791 17.508 39.1951 18.02C38.0111 18.532 36.6911 18.788 35.2351 18.788ZM50.9167 11.9L48.6607 14.252V18.5H44.7967V1.7H48.6607V9.548L56.1007 1.7H60.4207L53.4607 9.188L60.8287 18.5H56.2927L50.9167 11.9ZM67.7308 18.788C66.4028 18.788 65.1148 18.612 63.8668 18.26C62.6348 17.892 61.6428 17.42 60.8908 16.844L62.2108 13.916C62.9308 14.444 63.7868 14.868 64.7788 15.188C65.7708 15.508 66.7628 15.668 67.7548 15.668C68.8588 15.668 69.6748 15.508 70.2028 15.188C70.7308 14.852 70.9948 14.412 70.9948 13.868C70.9948 13.468 70.8348 13.14 70.5148 12.884C70.2108 12.612 69.8108 12.396 69.3148 12.236C68.8348 12.076 68.1788 11.9 67.3468 11.708C66.0668 11.404 65.0188 11.1 64.2028 10.796C63.3868 10.492 62.6828 10.004 62.0908 9.332C61.5148 8.66 61.2268 7.764 61.2268 6.644C61.2268 5.668 61.4908 4.788 62.0188 4.004C62.5468 3.204 63.3388 2.572 64.3948 2.108C65.4668 1.644 66.7708 1.412 68.3068 1.412C69.3788 1.412 70.4268 1.54 71.4508 1.796C72.4748 2.052 73.3708 2.42 74.1388 2.9L72.9388 5.852C71.3868 4.972 69.8348 4.532 68.2828 4.532C67.1948 4.532 66.3868 4.708 65.8588 5.06C65.3468 5.412 65.0908 5.876 65.0908 6.452C65.0908 7.028 65.3868 7.46 65.9788 7.748C66.5868 8.02 67.5068 8.292 68.7388 8.564C70.0188 8.868 71.0668 9.172 71.8828 9.476C72.6988 9.78 73.3948 10.26 73.9708 10.916C74.5628 11.572 74.8588 12.46 74.8588 13.58C74.8588 14.54 74.5868 15.42 74.0428 16.22C73.5148 17.004 72.7148 17.628 71.6428 18.092C70.5708 18.556 69.2668 18.788 67.7308 18.788ZM80.7611 4.868H75.3851V1.7H90.0251V4.868H84.6491V18.5H80.7611V4.868ZM100.019 18.788C98.2746 18.788 96.6986 18.412 95.2906 17.66C93.8986 16.908 92.8026 15.876 92.0026 14.564C91.2186 13.236 90.8266 11.748 90.8266 10.1C90.8266 8.452 91.2186 6.972 92.0026 5.66C92.8026 4.332 93.8986 3.292 95.2906 2.54C96.6986 1.788 98.2746 1.412 100.019 1.412C101.763 1.412 103.331 1.788 104.723 2.54C106.115 3.292 107.211 4.332 108.011 5.66C108.811 6.972 109.211 8.452 109.211 10.1C109.211 11.748 108.811 13.236 108.011 14.564C107.211 15.876 106.115 16.908 104.723 17.66C103.331 18.412 101.763 18.788 100.019 18.788ZM100.019 15.476C101.011 15.476 101.907 15.252 102.707 14.804C103.507 14.34 104.131 13.7 104.579 12.884C105.043 12.068 105.275 11.14 105.275 10.1C105.275 9.06 105.043 8.132 104.579 7.316C104.131 6.5 103.507 5.868 102.707 5.42C101.907 4.956 101.011 4.724 100.019 4.724C99.0266 4.724 98.1306 4.956 97.3306 5.42C96.5306 5.868 95.8986 6.5 95.4346 7.316C94.9866 8.132 94.7626 9.06 94.7626 10.1C94.7626 11.14 94.9866 12.068 95.4346 12.884C95.8986 13.7 96.5306 14.34 97.3306 14.804C98.1306 15.252 99.0266 15.476 100.019 15.476ZM122.837 18.5L119.597 13.82H119.405H116.021V18.5H112.133V1.7H119.405C120.893 1.7 122.181 1.948 123.269 2.444C124.373 2.94 125.221 3.644 125.813 4.556C126.405 5.468 126.701 6.548 126.701 7.796C126.701 9.044 126.397 10.124 125.789 11.036C125.197 11.932 124.349 12.62 123.245 13.1L127.013 18.5H122.837ZM122.765 7.796C122.765 6.852 122.461 6.132 121.853 5.636C121.245 5.124 120.357 4.868 119.189 4.868H116.021V10.724H119.189C120.357 10.724 121.245 10.468 121.853 9.956C122.461 9.444 122.765 8.724 122.765 7.796ZM142.789 15.38V18.5H129.781V1.7H142.477V4.82H133.645V8.468H141.445V11.492H133.645V15.38H142.789Z" fill="white"/>
</svg>
